<svg width="25" height="25" viewBox="0 0 25 25" fill="none" xmlns="http://www.w3.org/2000/svg">
	<path
		d="M16.5 13.611V17.811C16.5 21.311 15.1 22.711 11.6 22.711H7.4C3.9 22.711 2.5 21.311 2.5 17.811V13.611C2.5 10.111 3.9 8.711 7.4 8.711H11.6C15.1 8.711 16.5 10.111 16.5 13.611Z"
		stroke="#6A6A6A"
		stroke-width="1.5"
		stroke-linecap="round"
		stroke-linejoin="round"
	/>
	<path
		d="M22.5 7.611V11.811C22.5 15.311 21.1 16.711 17.6 16.711H16.5V13.611C16.5 10.111 15.1 8.711 11.6 8.711H8.5V7.611C8.5 4.111 9.9 2.711 13.4 2.711H17.6C21.1 2.711 22.5 4.111 22.5 7.611Z"
		stroke="#6A6A6A"
		stroke-width="1.5"
		stroke-linecap="round"
		stroke-linejoin="round"
	/>
</svg>
