<svg width="25" height="25" viewBox="0 0 25 25" fill="none" xmlns="http://www.w3.org/2000/svg">
<path d="M6.5 10.711V8.711C6.5 5.401 7.5 2.711 12.5 2.711C17.5 2.711 18.5 5.401 18.5 8.711V10.711M12.5 19.211C13.163 19.211 13.7989 18.9476 14.2678 18.4788C14.7366 18.0099 15 17.374 15 16.711C15 16.048 14.7366 15.4121 14.2678 14.9432C13.7989 14.4744 13.163 14.211 12.5 14.211C11.837 14.211 11.2011 14.4744 10.7322 14.9432C10.2634 15.4121 10 16.048 10 16.711C10 17.374 10.2634 18.0099 10.7322 18.4788C11.2011 18.9476 11.837 19.211 12.5 19.211Z" stroke="#6A6A6A" stroke-width="1.5" stroke-linecap="round" stroke-linejoin="round"/>
<path d="M17.5 22.711H7.5C3.5 22.711 2.5 21.711 2.5 17.711V15.711C2.5 11.711 3.5 10.711 7.5 10.711H17.5C21.5 10.711 22.5 11.711 22.5 15.711V17.711C22.5 21.711 21.5 22.711 17.5 22.711Z" stroke="#6A6A6A" stroke-width="1.5" stroke-linecap="round" stroke-linejoin="round"/>
</svg>
